<svg width="214" height="44" viewBox="0 0 214 44" fill="none" xmlns="http://www.w3.org/2000/svg">
<path d="M48.155 4.555V28H42.89V4.555H48.155ZM59.657 28.36C57.897 28.36 56.347 28.01 55.007 27.31C53.677 26.6 52.632 25.62 51.872 24.37C51.122 23.12 50.747 21.68 50.747 20.05C50.747 18.41 51.122 16.97 51.872 15.73C52.632 14.48 53.677 13.505 55.007 12.805C56.347 12.105 57.897 11.755 59.657 11.755C61.417 11.755 62.962 12.105 64.292 12.805C65.632 13.505 66.677 14.48 67.427 15.73C68.187 16.97 68.567 18.41 68.567 20.05C68.567 21.68 68.187 23.12 67.427 24.37C66.677 25.62 65.632 26.6 64.292 27.31C62.962 28.01 61.417 28.36 59.657 28.36ZM59.657 24.235C60.377 24.235 60.997 24.06 61.517 23.71C62.037 23.36 62.437 22.875 62.717 22.255C62.997 21.625 63.137 20.89 63.137 20.05C63.137 19.2 62.997 18.465 62.717 17.845C62.437 17.225 62.037 16.745 61.517 16.405C60.997 16.065 60.377 15.895 59.657 15.895C58.947 15.895 58.327 16.065 57.797 16.405C57.277 16.745 56.877 17.225 56.597 17.845C56.317 18.465 56.177 19.2 56.177 20.05C56.177 20.89 56.317 21.625 56.597 22.255C56.877 22.875 57.277 23.36 57.797 23.71C58.327 24.06 58.947 24.235 59.657 24.235ZM76.4523 28.345C75.3023 28.345 74.2773 28.165 73.3773 27.805C72.4773 27.435 71.7673 26.9 71.2473 26.2C70.7273 25.5 70.4673 24.65 70.4673 23.65C70.4673 22.5 70.7923 21.57 71.4423 20.86C72.0923 20.14 72.9373 19.595 73.9773 19.225C75.0173 18.845 76.1173 18.6 77.2773 18.49C78.9573 18.33 80.1023 18.19 80.7123 18.07C81.3323 17.94 81.6423 17.72 81.6423 17.41C81.6423 17.4 81.6423 17.395 81.6423 17.395C81.6423 17.385 81.6423 17.38 81.6423 17.38C81.6423 16.9 81.3873 16.51 80.8773 16.21C80.3773 15.91 79.6873 15.76 78.8073 15.76C77.8773 15.76 77.1723 15.93 76.6923 16.27C76.2223 16.6 75.9873 17.105 75.9873 17.785H70.7073C70.7073 16.475 71.0673 15.375 71.7873 14.485C72.5173 13.585 73.4973 12.905 74.7273 12.445C75.9573 11.985 77.3323 11.755 78.8523 11.755C80.2923 11.755 81.6273 11.97 82.8573 12.4C84.0973 12.83 85.0973 13.485 85.8573 14.365C86.6273 15.245 87.0123 16.365 87.0123 17.725C87.0123 17.935 87.0123 18.145 87.0123 18.355C87.0123 18.565 87.0123 18.775 87.0123 18.985V24.265C87.0123 24.685 87.0223 25.095 87.0423 25.495C87.0623 25.885 87.1173 26.245 87.2073 26.575C87.3173 26.935 87.4523 27.24 87.6123 27.49C87.7823 27.74 87.9173 27.91 88.0173 28H82.7823C82.7023 27.92 82.5823 27.765 82.4223 27.535C82.2723 27.305 82.1423 27.04 82.0323 26.74C81.9023 26.34 81.8073 25.955 81.7473 25.585C81.6873 25.205 81.6573 24.755 81.6573 24.235L82.7973 25.015C82.5173 25.705 82.0573 26.3 81.4173 26.8C80.7873 27.3 80.0423 27.685 79.1823 27.955C78.3223 28.215 77.4123 28.345 76.4523 28.345ZM77.9823 24.46C78.6023 24.46 79.1973 24.335 79.7673 24.085C80.3373 23.835 80.8073 23.435 81.1773 22.885C81.5473 22.335 81.7323 21.6 81.7323 20.68V19.585L83.0823 20.785C82.4223 21.015 81.6723 21.21 80.8323 21.37C79.9923 21.52 79.1723 21.635 78.3723 21.715C77.5223 21.805 76.8873 21.95 76.4673 22.15C76.0473 22.35 75.8373 22.68 75.8373 23.14C75.8373 23.58 76.0173 23.91 76.3773 24.13C76.7473 24.35 77.2823 24.46 77.9823 24.46ZM101.271 28V21.52C101.271 21.17 101.271 20.84 101.271 20.53C101.271 20.21 101.271 19.93 101.271 19.69C101.271 19.09 101.201 18.53 101.061 18.01C100.931 17.48 100.671 17.055 100.281 16.735C99.9009 16.405 99.3209 16.24 98.5409 16.24C97.8709 16.24 97.3059 16.39 96.8459 16.69C96.3859 16.98 96.0409 17.395 95.8109 17.935C95.5809 18.475 95.4659 19.11 95.4659 19.84L94.2359 18.775C94.2359 17.355 94.5309 16.12 95.1209 15.07C95.7209 14.02 96.5309 13.205 97.5509 12.625C98.5709 12.045 99.7159 11.755 100.986 11.755C102.316 11.755 103.391 12.025 104.211 12.565C105.041 13.105 105.646 13.855 106.026 14.815C106.416 15.775 106.611 16.88 106.611 18.13C106.611 18.66 106.611 19.26 106.611 19.93C106.611 20.6 106.611 21.295 106.611 22.015V28H101.271ZM90.1259 28V12.07H95.4659V28H90.1259ZM116.579 28.375C115.629 28.375 114.704 28.265 113.804 28.045C112.914 27.825 112.104 27.495 111.374 27.055C110.654 26.605 110.074 26.045 109.634 25.375C109.204 24.705 108.989 23.925 108.989 23.035C108.989 23.005 108.989 22.97 108.989 22.93C108.989 22.89 108.989 22.855 108.989 22.825H114.299C114.299 22.855 114.299 22.885 114.299 22.915C114.299 22.945 114.299 22.975 114.299 23.005C114.299 23.505 114.514 23.865 114.944 24.085C115.384 24.305 115.979 24.415 116.729 24.415C117.069 24.415 117.414 24.38 117.764 24.31C118.124 24.23 118.424 24.105 118.664 23.935C118.914 23.755 119.039 23.53 119.039 23.26C119.039 22.83 118.779 22.525 118.259 22.345C117.749 22.165 116.884 21.975 115.664 21.775C114.964 21.665 114.234 21.5 113.474 21.28C112.724 21.06 112.024 20.765 111.374 20.395C110.724 20.025 110.199 19.555 109.799 18.985C109.399 18.415 109.199 17.715 109.199 16.885C109.199 15.755 109.539 14.815 110.219 14.065C110.899 13.305 111.799 12.73 112.919 12.34C114.049 11.95 115.289 11.755 116.639 11.755C117.919 11.755 119.114 11.97 120.224 12.4C121.344 12.83 122.249 13.445 122.939 14.245C123.639 15.045 123.989 15.995 123.989 17.095C123.989 17.115 123.989 17.145 123.989 17.185C123.989 17.215 123.989 17.245 123.989 17.275H118.739C118.739 17.245 118.739 17.215 118.739 17.185C118.739 17.155 118.739 17.13 118.739 17.11C118.739 16.77 118.629 16.495 118.409 16.285C118.199 16.075 117.929 15.92 117.599 15.82C117.279 15.72 116.949 15.67 116.609 15.67C116.319 15.67 116.004 15.705 115.664 15.775C115.324 15.835 115.034 15.945 114.794 16.105C114.554 16.255 114.434 16.48 114.434 16.78C114.434 17.04 114.574 17.26 114.854 17.44C115.134 17.62 115.519 17.77 116.009 17.89C116.499 18 117.059 18.105 117.689 18.205C118.309 18.295 118.994 18.435 119.744 18.625C120.494 18.815 121.209 19.09 121.889 19.45C122.569 19.8 123.124 20.27 123.554 20.86C123.994 21.45 124.214 22.2 124.214 23.11C124.214 24.07 123.994 24.885 123.554 25.555C123.114 26.225 122.519 26.77 121.769 27.19C121.029 27.6 120.209 27.9 119.309 28.09C118.409 28.28 117.499 28.375 116.579 28.375ZM125.831 28L131.156 5.86H139.646L144.956 28H139.466L135.401 9.085H135.431L131.306 28H125.831ZM130.061 23.11V19.015H140.771V23.11H130.061ZM147.313 34.555V12.07H152.668V34.555H147.313ZM157.483 28.375C156.223 28.375 155.068 28.03 154.018 27.34C152.978 26.64 152.148 25.705 151.528 24.535C150.908 23.355 150.598 22.04 150.598 20.59C150.598 20.55 150.598 20.51 150.598 20.47C150.598 20.42 150.598 20.37 150.598 20.32L152.668 20.275C152.668 20.305 152.668 20.34 152.668 20.38C152.668 20.41 152.668 20.435 152.668 20.455C152.668 21.155 152.828 21.76 153.148 22.27C153.478 22.77 153.898 23.155 154.408 23.425C154.928 23.685 155.463 23.815 156.013 23.815C156.903 23.815 157.693 23.505 158.383 22.885C159.073 22.265 159.418 21.285 159.418 19.945C159.418 18.605 159.073 17.64 158.383 17.05C157.703 16.45 156.913 16.15 156.013 16.15C155.473 16.15 154.943 16.28 154.423 16.54C153.913 16.79 153.493 17.16 153.163 17.65C152.833 18.13 152.668 18.725 152.668 19.435L150.598 19.3C150.598 17.84 150.908 16.545 151.528 15.415C152.148 14.285 152.978 13.395 154.018 12.745C155.068 12.085 156.223 11.755 157.483 11.755C158.773 11.755 159.983 12.07 161.113 12.7C162.253 13.33 163.173 14.255 163.873 15.475C164.583 16.695 164.938 18.185 164.938 19.945C164.938 21.795 164.593 23.345 163.903 24.595C163.213 25.845 162.303 26.79 161.173 27.43C160.043 28.06 158.813 28.375 157.483 28.375ZM167.499 34.555V12.07H172.854V34.555H167.499ZM177.669 28.375C176.409 28.375 175.254 28.03 174.204 27.34C173.164 26.64 172.334 25.705 171.714 24.535C171.094 23.355 170.784 22.04 170.784 20.59C170.784 20.55 170.784 20.51 170.784 20.47C170.784 20.42 170.784 20.37 170.784 20.32L172.854 20.275C172.854 20.305 172.854 20.34 172.854 20.38C172.854 20.41 172.854 20.435 172.854 20.455C172.854 21.155 173.014 21.76 173.334 22.27C173.664 22.77 174.084 23.155 174.594 23.425C175.114 23.685 175.649 23.815 176.199 23.815C177.089 23.815 177.879 23.505 178.569 22.885C179.259 22.265 179.604 21.285 179.604 19.945C179.604 18.605 179.259 17.64 178.569 17.05C177.889 16.45 177.099 16.15 176.199 16.15C175.659 16.15 175.129 16.28 174.609 16.54C174.099 16.79 173.679 17.16 173.349 17.65C173.019 18.13 172.854 18.725 172.854 19.435L170.784 19.3C170.784 17.84 171.094 16.545 171.714 15.415C172.334 14.285 173.164 13.395 174.204 12.745C175.254 12.085 176.409 11.755 177.669 11.755C178.959 11.755 180.169 12.07 181.299 12.7C182.439 13.33 183.359 14.255 184.059 15.475C184.769 16.695 185.124 18.185 185.124 19.945C185.124 21.795 184.779 23.345 184.089 24.595C183.399 25.845 182.489 26.79 181.359 27.43C180.229 28.06 178.999 28.375 177.669 28.375Z" fill="black"/>
<ellipse cx="17" cy="16" rx="17" ry="16" fill="#C4C4C4"/>
</svg>
